<svg xmlns="http://www.w3.org/2000/svg" shape-rendering="crispEdges" viewBox="0 -0.5 288 88" width="288" height="88"><metadata>Generated with pixel-perfect-svg https://github.com/kagof/pixel-perfect-svg</metadata><path stroke="#2c2b2b" d="M44,32h232M44,33h232M44,34h232M44,35h232M40,36h4M276,36h4M40,37h4M276,37h4M40,38h4M276,38h4M40,39h4M276,39h4M36,40h4M280,40h4M36,41h4M280,41h4M36,42h4M280,42h4M36,43h4M280,43h4M36,44h4M280,44h4M36,45h4M280,45h4M36,46h4M280,46h4M36,47h4M280,47h4M36,48h4M280,48h4M36,49h4M280,49h4M36,50h4M280,50h4M36,51h4M280,51h4M36,52h4M280,52h4M36,53h4M280,53h4M36,54h4M280,54h4M36,55h4M280,55h4M40,56h4M276,56h4M40,57h4M276,57h4M40,58h4M276,58h4M40,59h4M276,59h4M44,60h232M44,61h232M44,62h232M44,63h232"/><path stroke="#ffffff" d="M44,36h232M44,37h232M44,38h232M44,39h232M40,40h240M40,41h240M40,42h240M40,43h240M40,44h240M40,45h240M40,46h240M40,47h240M40,48h240M40,49h240M40,50h240M40,51h240M40,52h240M40,53h240M40,54h240M40,55h240M44,56h232M44,57h232M44,58h232M44,59h232"/></svg>
