<svg xmlns="http://www.w3.org/2000/svg" shape-rendering="crispEdges" viewBox="0 -0.5 280 88" width="280" height="88"><metadata>Generated with pixel-perfect-svg https://github.com/kagof/pixel-perfect-svg</metadata><path stroke="#ffffff" d="M36,28h232M36,29h232M36,30h232M36,31h232M32,32h4M268,32h4M32,33h4M268,33h4M32,34h4M268,34h4M32,35h4M268,35h4M28,36h4M272,36h4M28,37h4M272,37h4M28,38h4M272,38h4M28,39h4M272,39h4M24,40h4M276,40h4M24,41h4M276,41h4M24,42h4M276,42h4M24,43h4M276,43h4M24,44h4M276,44h4M24,45h4M276,45h4M24,46h4M276,46h4M24,47h4M276,47h4M24,48h4M276,48h4M24,49h4M276,49h4M24,50h4M276,50h4M24,51h4M276,51h4M24,52h4M276,52h4M24,53h4M276,53h4M24,54h4M276,54h4M24,55h4M276,55h4M28,56h4M272,56h4M28,57h4M272,57h4M28,58h4M272,58h4M28,59h4M272,59h4M32,60h4M268,60h4M32,61h4M268,61h4M32,62h4M268,62h4M32,63h4M268,63h4M36,64h232M36,65h232M36,66h232M36,67h232"/><path stroke="#2c2b2b" d="M36,32h232M36,33h232M36,34h232M36,35h232M32,36h4M60,36h4M96,36h4M132,36h4M172,36h4M212,36h4M244,36h4M268,36h4M32,37h4M60,37h4M96,37h4M132,37h4M172,37h4M212,37h4M244,37h4M268,37h4M32,38h4M60,38h4M96,38h4M132,38h4M172,38h4M212,38h4M244,38h4M268,38h4M32,39h4M60,39h4M96,39h4M132,39h4M172,39h4M212,39h4M244,39h4M268,39h4M28,40h4M60,40h4M244,40h4M272,40h4M28,41h4M60,41h4M244,41h4M272,41h4M28,42h4M60,42h4M244,42h4M272,42h4M28,43h4M60,43h4M244,43h4M272,43h4M28,44h4M60,44h4M96,44h4M132,44h4M172,44h4M212,44h4M244,44h4M272,44h4M28,45h4M60,45h4M96,45h4M132,45h4M172,45h4M212,45h4M244,45h4M272,45h4M28,46h4M60,46h4M96,46h4M132,46h4M172,46h4M212,46h4M244,46h4M272,46h4M28,47h4M60,47h4M96,47h4M132,47h4M172,47h4M212,47h4M244,47h4M272,47h4M28,48h4M60,48h4M96,48h4M132,48h4M172,48h4M212,48h4M244,48h4M272,48h4M28,49h4M60,49h4M96,49h4M132,49h4M172,49h4M212,49h4M244,49h4M272,49h4M28,50h4M60,50h4M96,50h4M132,50h4M172,50h4M212,50h4M244,50h4M272,50h4M28,51h4M60,51h4M96,51h4M132,51h4M172,51h4M212,51h4M244,51h4M272,51h4M28,52h4M60,52h4M96,52h4M132,52h4M172,52h4M212,52h4M244,52h4M272,52h4M28,53h4M60,53h4M96,53h4M132,53h4M172,53h4M212,53h4M244,53h4M272,53h4M28,54h4M60,54h4M96,54h4M132,54h4M172,54h4M212,54h4M244,54h4M272,54h4M28,55h4M60,55h4M96,55h4M132,55h4M172,55h4M212,55h4M244,55h4M272,55h4M32,56h4M60,56h4M96,56h4M132,56h4M172,56h4M212,56h4M244,56h4M268,56h4M32,57h4M60,57h4M96,57h4M132,57h4M172,57h4M212,57h4M244,57h4M268,57h4M32,58h4M60,58h4M96,58h4M132,58h4M172,58h4M212,58h4M244,58h4M268,58h4M32,59h4M60,59h4M96,59h4M132,59h4M172,59h4M212,59h4M244,59h4M268,59h4M36,60h232M36,61h232M36,62h232M36,63h232"/><path stroke="#ffffff" opacity="0.6666666666666666" d="M68,40h28M100,40h32M136,40h36M176,40h36M216,40h20M240,40h4M68,41h28M100,41h32M136,41h36M176,41h36M216,41h20M240,41h4M68,42h28M100,42h32M136,42h36M176,42h36M216,42h20M240,42h4M68,43h28M100,43h32M136,43h36M176,43h36M216,43h20M240,43h4"/><path stroke="#b8b8b8" d="M96,40h4M132,40h4M172,40h4M212,40h4M96,41h4M132,41h4M172,41h4M212,41h4M96,42h4M132,42h4M172,42h4M212,42h4M96,43h4M132,43h4M172,43h4M212,43h4"/></svg>
