<svg xmlns="http://www.w3.org/2000/svg" shape-rendering="crispEdges" viewBox="0 -0.5 128 126" width="128" height="126"><metadata>Generated with pixel-perfect-svg https://github.com/kagof/pixel-perfect-svg</metadata><path stroke="#1e1e1e" d="M52,26h20M52,27h20M44,28h36M44,29h36M40,30h44M40,31h44M36,32h16M72,32h16M36,33h16M72,33h16M32,34h12M80,34h12M32,35h12M80,35h12M30,36h10M84,36h10M30,37h10M84,37h10M28,38h8M88,38h8M28,39h8M88,39h8M26,40h6M92,40h6M26,41h6M92,41h6M24,42h6M94,42h6M24,43h6M94,43h6M22,44h6M96,44h6M22,45h6M96,45h6M20,46h6M98,46h6M20,47h6M98,47h6M18,48h6M100,48h6M18,49h6M100,49h6M16,50h6M102,50h6M16,51h6M102,51h6M16,52h6M102,52h6M16,53h6M102,53h6M14,54h6M104,54h6M14,55h6M104,55h6M14,56h6M104,56h6M14,57h6M104,57h6M12,58h6M106,58h6M12,59h6M106,59h6M12,60h6M106,60h6M12,61h6M106,61h6M10,62h6M108,62h6M10,63h6M108,63h6M10,64h6M108,64h6M10,65h6M108,65h6M10,66h6M108,66h6M10,67h6M108,67h6M10,68h6M40,68h8M76,68h8M108,68h6M10,69h6M40,69h8M76,69h8M108,69h6M10,70h6M36,70h16M72,70h16M108,70h6M10,71h6M36,71h16M72,71h16M108,71h6M10,72h6M34,72h20M70,72h20M108,72h6M10,73h6M34,73h20M70,73h20M108,73h6M10,74h6M34,74h20M70,74h20M108,74h6M10,75h6M34,75h20M70,75h20M108,75h6M10,76h6M32,76h24M68,76h24M108,76h6M10,77h6M32,77h24M68,77h24M108,77h6M10,78h6M32,78h24M68,78h24M108,78h6M10,79h6M32,79h24M68,79h24M108,79h6M12,80h6M32,80h24M68,80h24M106,80h6M12,81h6M32,81h24M68,81h24M106,81h6M12,82h6M34,82h20M70,82h20M106,82h6M12,83h6M34,83h20M70,83h20M106,83h6M14,84h6M34,84h20M70,84h20M104,84h6M14,85h6M34,85h20M70,85h20M104,85h6M14,86h6M36,86h16M72,86h16M104,86h6M14,87h6M36,87h16M72,87h16M104,87h6M16,88h6M36,88h16M72,88h16M102,88h6M16,89h6M36,89h16M72,89h16M102,89h6M16,90h6M40,90h8M76,90h8M102,90h6M16,91h6M40,91h8M76,91h8M102,91h6M18,92h6M100,92h6M18,93h6M100,93h6M20,94h6M60,94h4M98,94h6M20,95h6M60,95h4M98,95h6M22,96h6M58,96h8M96,96h6M22,97h6M58,97h8M96,97h6M22,98h6M58,98h8M96,98h6M22,99h6M58,99h8M96,99h6M22,100h6M60,100h4M96,100h6M22,101h6M60,101h4M96,101h6M20,102h6M98,102h6M20,103h6M98,103h6M20,104h6M98,104h6M20,105h6M98,105h6M20,106h6M98,106h6M20,107h6M98,107h6M22,108h6M96,108h6M22,109h6M96,109h6M22,110h6M96,110h6M22,111h6M96,111h6M24,112h6M44,112h2M78,112h2M94,112h6M24,113h6M44,113h2M78,113h2M94,113h6M26,114h6M42,114h6M76,114h6M92,114h6M26,115h6M42,115h6M76,115h6M92,115h6M28,116h20M76,116h20M28,117h20M76,117h20M30,118h20M74,118h20M30,119h20M74,119h20M32,120h10M46,120h6M72,120h6M82,120h10M32,121h10M46,121h6M72,121h6M82,121h10M48,122h8M68,122h8M48,123h8M68,123h8M50,124h24M50,125h24"/><path stroke="#a29494" d="M52,32h2M70,32h2M52,33h2M70,33h2M44,34h2M78,34h2M44,35h2M78,35h2M40,36h2M82,36h2M40,37h2M82,37h2M36,38h2M86,38h2M36,39h2M86,39h2M32,40h2M90,40h2M32,41h2M90,41h2M22,50h2M100,50h2M22,51h2M100,51h2M20,54h2M102,54h2M20,55h2M102,55h2M18,58h2M104,58h2M18,59h2M104,59h2M16,62h2M106,62h2M16,63h2M106,63h2M16,78h2M106,78h2M16,79h2M106,79h2M18,82h2M104,82h2M18,83h2M104,83h2M20,86h2M102,86h2M20,87h2M102,87h2M22,90h2M100,90h2M22,91h2M100,91h2M24,92h2M98,92h2M24,93h2M98,93h2M26,94h2M96,94h2M26,95h2M96,95h2M26,102h2M96,102h2M26,103h2M96,103h2M26,106h2M96,106h2M26,107h2M96,107h2M28,110h2M44,110h2M78,110h2M94,110h2M28,111h2M44,111h2M78,111h2M94,111h2M30,112h2M42,112h2M46,112h2M76,112h2M80,112h2M92,112h2M30,113h2M42,113h2M46,113h2M76,113h2M80,113h2M92,113h2M32,114h2M40,114h2M82,114h2M90,114h2M32,115h2M40,115h2M82,115h2M90,115h2M48,116h2M74,116h2M48,117h2M74,117h2M50,118h2M72,118h2M50,119h2M72,119h2M52,120h2M70,120h2M52,121h2M70,121h2M56,122h2M66,122h2M56,123h2M66,123h2"/><path stroke="#ffffff" d="M54,32h16M54,33h16M46,34h32M46,35h32M42,36h40M42,37h40M38,38h48M38,39h48M34,40h56M34,41h56M30,42h64M30,43h64M28,44h68M28,45h68M26,46h72M26,47h72M24,48h76M24,49h76M24,50h76M24,51h76M22,52h80M22,53h80M22,54h80M22,55h80M20,56h84M20,57h84M20,58h84M20,59h84M18,60h88M18,61h88M18,62h88M18,63h88M18,64h88M18,65h88M18,66h88M18,67h88M18,68h22M48,68h28M84,68h22M18,69h22M48,69h28M84,69h22M18,70h18M52,70h20M88,70h18M18,71h18M52,71h20M88,71h18M18,72h16M54,72h16M90,72h16M18,73h16M54,73h16M90,73h16M18,74h16M54,74h16M90,74h16M18,75h16M54,75h16M90,75h16M20,76h12M56,76h12M92,76h12M20,77h12M56,77h12M92,77h12M20,78h12M56,78h12M92,78h12M20,79h12M56,79h12M92,79h12M20,80h12M56,80h12M92,80h12M20,81h12M56,81h12M92,81h12M22,82h10M56,82h12M92,82h10M22,83h10M56,83h12M92,83h10M24,84h8M56,84h12M92,84h8M24,85h8M56,85h12M92,85h8M26,86h8M54,86h16M90,86h8M26,87h8M54,87h16M90,87h8M28,88h6M54,88h16M90,88h6M28,89h6M54,89h16M90,89h6M30,90h6M52,90h20M88,90h6M30,91h6M52,91h20M88,91h6M32,92h8M48,92h28M84,92h8M32,93h8M48,93h28M84,93h8M36,94h24M64,94h24M36,95h24M64,95h24M34,96h24M66,96h24M34,97h24M66,97h24M30,98h26M68,98h26M30,99h26M68,99h26M30,100h26M68,100h26M30,101h26M68,101h26M30,102h28M66,102h28M30,103h28M66,103h28M30,104h64M30,105h64M32,106h12M46,106h32M80,106h12M32,107h12M46,107h32M80,107h12M34,108h8M48,108h28M82,108h8M34,109h8M48,109h28M82,109h8M36,110h4M50,110h24M84,110h4M36,111h4M50,111h24M84,111h4M50,112h24M50,113h24M54,114h16M54,115h16M56,116h12M56,117h12M60,118h4M60,119h4"/><path stroke="#f5f5f5" d="M16,64h2M106,64h2M16,65h2M106,65h2M16,66h2M106,66h2M16,67h2M106,67h2M16,68h2M106,68h2M16,69h2M106,69h2M16,70h2M106,70h2M16,71h2M106,71h2M16,72h2M106,72h2M16,73h2M106,73h2M16,74h2M106,74h2M16,75h2M106,75h2M16,76h4M104,76h4M16,77h4M104,77h4M18,78h2M104,78h2M18,79h2M104,79h2M18,80h2M104,80h2M18,81h2M104,81h2M20,82h2M102,82h2M20,83h2M102,83h2M20,84h4M100,84h4M20,85h4M100,85h4M22,86h4M98,86h4M22,87h4M98,87h4M22,88h6M96,88h6M22,89h6M96,89h6M24,90h6M94,90h6M24,91h6M94,91h6M26,92h6M92,92h6M26,93h6M92,93h6M28,94h8M88,94h8M28,95h8M88,95h8M28,96h6M90,96h6M28,97h6M90,97h6M28,98h2M94,98h2M28,99h2M94,99h2M28,100h2M94,100h2M28,101h2M94,101h2M28,102h2M94,102h2M28,103h2M94,103h2M26,104h4M94,104h4M26,105h4M94,105h4M28,106h4M44,106h2M78,106h2M92,106h4M28,107h4M44,107h2M78,107h2M92,107h4M28,108h6M42,108h6M76,108h6M90,108h6M28,109h6M42,109h6M76,109h6M90,109h6M30,110h6M40,110h4M46,110h4M74,110h4M80,110h4M88,110h6M30,111h6M40,111h4M46,111h4M74,111h4M80,111h4M88,111h6M32,112h10M48,112h2M74,112h2M82,112h10M32,113h10M48,113h2M74,113h2M82,113h10M34,114h6M48,114h6M70,114h6M84,114h6M34,115h6M48,115h6M70,115h6M84,115h6M50,116h6M68,116h6M50,117h6M68,117h6M52,118h8M64,118h8M52,119h8M64,119h8M54,120h16M54,121h16M58,122h8M58,123h8"/><path stroke="#595454" d="M32,82h2M54,82h2M68,82h2M90,82h2M32,83h2M54,83h2M68,83h2M90,83h2M32,84h2M54,84h2M68,84h2M90,84h2M32,85h2M54,85h2M68,85h2M90,85h2M34,86h2M52,86h2M70,86h2M88,86h2M34,87h2M52,87h2M70,87h2M88,87h2M34,88h2M52,88h2M70,88h2M88,88h2M34,89h2M52,89h2M70,89h2M88,89h2M36,90h4M48,90h4M72,90h4M84,90h4M36,91h4M48,91h4M72,91h4M84,91h4M40,92h8M76,92h8M40,93h8M76,93h8M56,98h2M66,98h2M56,99h2M66,99h2M56,100h4M64,100h4M56,101h4M64,101h4M58,102h8M58,103h8"/></svg>
