<svg xmlns="http://www.w3.org/2000/svg" shape-rendering="crispEdges" viewBox="0 -0.5 170 120" width="170" height="120"><metadata>Generated with pixel-perfect-svg https://github.com/kagof/pixel-perfect-svg</metadata><path stroke="#ff7794" d="M85,0h4M85,1h4M85,2h4M85,3h4M69,4h8M81,4h4M89,4h4M97,4h8M69,5h8M81,5h4M89,5h4M97,5h8M69,6h8M81,6h4M89,6h4M97,6h8M69,7h8M81,7h4M89,7h4M97,7h8M69,8h4M77,8h4M93,8h4M101,8h4M69,9h4M77,9h4M93,9h4M101,9h4M69,10h4M77,10h4M93,10h4M101,10h4M69,11h4M77,11h4M93,11h4M101,11h4M69,12h4M77,12h4M93,12h4M101,12h4M69,13h4M77,13h4M93,13h4M101,13h4M69,14h4M77,14h4M93,14h4M101,14h4M69,15h4M77,15h4M93,15h4M101,15h4M69,16h4M101,16h4M69,17h4M101,17h4M69,18h4M101,18h4M69,19h4M101,19h4M69,20h36M69,21h36M69,22h36M69,23h36M57,28h16M101,28h16M57,29h16M101,29h16M57,30h16M101,30h16M57,31h16M101,31h16M49,32h32M93,32h32M49,33h32M93,33h32M49,34h32M93,34h32M49,35h32M93,35h32M45,36h12M73,36h12M89,36h12M117,36h12M45,37h12M73,37h12M89,37h12M117,37h12M45,38h12M73,38h12M89,38h12M117,38h12M45,39h12M73,39h12M89,39h12M117,39h12M41,40h8M81,40h12M125,40h8M41,41h8M81,41h12M125,41h8M41,42h8M81,42h12M125,42h8M41,43h8M81,43h12M125,43h8M41,44h8M85,44h4M125,44h8M41,45h8M85,45h4M125,45h8M41,46h8M85,46h4M125,46h8M41,47h8M85,47h4M125,47h8M37,48h8M129,48h8M37,49h8M129,49h8M37,50h8M129,50h8M37,51h8M129,51h8M37,52h8M129,52h8M37,53h8M129,53h8M37,54h8M129,54h8M37,55h8M129,55h8M37,56h8M129,56h8M37,57h8M129,57h8M37,58h8M129,58h8M37,59h8M129,59h8M37,60h8M129,60h8M37,61h8M129,61h8M37,62h8M129,62h8M37,63h8M129,63h8M37,64h8M129,64h8M37,65h8M129,65h8M37,66h8M129,66h8M37,67h8M129,67h8M41,68h8M125,68h8M41,69h8M125,69h8M41,70h8M125,70h8M41,71h8M125,71h8M41,72h8M125,72h8M41,73h8M125,73h8M41,74h8M125,74h8M41,75h8M125,75h8M45,76h8M121,76h8M45,77h8M121,77h8M45,78h8M121,78h8M45,79h8M121,79h8M45,80h8M121,80h8M45,81h8M121,81h8M45,82h8M121,82h8M45,83h8M121,83h8M49,84h8M117,84h8M49,85h8M117,85h8M49,86h8M117,86h8M49,87h8M117,87h8M53,88h8M113,88h8M53,89h8M113,89h8M53,90h8M113,90h8M53,91h8M113,91h8M57,92h8M109,92h8M57,93h8M109,93h8M57,94h8M109,94h8M57,95h8M109,95h8M61,96h8M105,96h8M61,97h8M105,97h8M61,98h8M105,98h8M61,99h8M105,99h8M65,100h8M101,100h8M65,101h8M101,101h8M65,102h8M101,102h8M65,103h8M101,103h8M69,104h12M93,104h12M69,105h12M93,105h12M69,106h12M93,106h12M69,107h12M93,107h12M73,108h12M89,108h12M73,109h12M89,109h12M73,110h12M89,110h12M73,111h12M89,111h12M81,112h12M81,113h12M81,114h12M81,115h12M85,116h4M85,117h4M85,118h4M85,119h4"/><path stroke="#ffb6c7" d="M85,4h4M85,5h4M85,6h4M85,7h4M73,8h4M85,8h8M97,8h4M73,9h4M85,9h8M97,9h4M73,10h4M85,10h8M97,10h4M73,11h4M85,11h8M97,11h4M73,12h4M81,12h12M97,12h4M73,13h4M81,13h12M97,13h4M73,14h4M81,14h12M97,14h4M73,15h4M81,15h12M97,15h4M73,16h28M73,17h28M73,18h28M73,19h28"/><path stroke="#ffffff" d="M81,8h4M81,9h4M81,10h4M81,11h4"/><path stroke="#124772" d="M4,36h17M4,37h17M4,38h17M4,39h17M9,40h4M21,40h4M9,41h4M21,41h4M9,42h4M21,42h4M9,43h4M21,43h4M13,44h4M25,44h4M13,45h4M25,45h4M13,46h4M25,46h4M13,47h4M25,47h4M13,48h4M29,48h4M13,49h4M29,49h4M13,50h4M29,50h4M13,51h4M29,51h4M9,52h4M29,52h4M9,53h4M29,53h4M9,54h4M29,54h4M9,55h4M29,55h4M13,56h8M29,56h4M13,57h8M29,57h4M13,58h8M29,58h4M13,59h8M29,59h4M21,60h4M29,60h4M21,61h4M29,61h4M21,62h4M29,62h4M21,63h4M29,63h4M25,64h4M25,65h4M25,66h4M25,67h4"/><path stroke="#0d6b6d" d="M153,36h16M153,37h16M153,38h16M153,39h16M149,40h4M161,40h4M149,41h4M161,41h4M149,42h4M161,42h4M149,43h4M161,43h4M145,44h4M157,44h4M145,45h4M157,45h4M145,46h4M157,46h4M145,47h4M157,47h4M141,48h4M157,48h4M141,49h4M157,49h4M141,50h4M157,50h4M141,51h4M157,51h4M141,52h4M161,52h4M141,53h4M161,53h4M141,54h4M161,54h4M141,55h4M161,55h4M141,56h4M153,56h8M141,57h4M153,57h8M141,58h4M153,58h8M141,59h4M153,59h8M141,60h4M149,60h4M141,61h4M149,61h4M141,62h4M149,62h4M141,63h4M149,63h4M145,64h4M145,65h4M145,66h4M145,67h4"/><path stroke="#a4ddf0" d="M13,40h4M13,41h4M13,42h4M13,43h4M17,44h4M17,45h4M17,46h4M17,47h4M17,48h8M17,49h8M17,50h8M17,51h8M13,52h4M13,53h4M13,54h4M13,55h4M21,56h4M21,57h4M21,58h4M21,59h4"/><path stroke="#8bcff2" d="M17,40h4M17,41h4M17,42h4M17,43h4M21,44h4M21,45h4M21,46h4M21,47h4M25,48h4M25,49h4M25,50h4M25,51h4M17,52h12M17,53h12M17,54h12M17,55h12M25,56h4M25,57h4M25,58h4M25,59h4M25,60h4M25,61h4M25,62h4M25,63h4"/><path stroke="#90d4c9" d="M153,40h4M153,41h4M153,42h4M153,43h4M149,44h4M149,45h4M149,46h4M149,47h4M145,48h4M145,49h4M145,50h4M145,51h4M145,52h12M145,53h12M145,54h12M145,55h12M145,56h4M145,57h4M145,58h4M145,59h4M145,60h4M145,61h4M145,62h4M145,63h4"/><path stroke="#c4efe8" d="M157,40h4M157,41h4M157,42h4M157,43h4M153,44h4M153,45h4M153,46h4M153,47h4M149,48h8M149,49h8M149,50h8M149,51h8M157,52h4M157,53h4M157,54h4M157,55h4M149,56h4M149,57h4M149,58h4M149,59h4"/></svg>
