<svg xmlns="http://www.w3.org/2000/svg" shape-rendering="crispEdges" viewBox="0 -0.5 98 90" width="98" height="90"><metadata>Generated with pixel-perfect-svg https://github.com/kagof/pixel-perfect-svg</metadata><path stroke="#000000" opacity="0.047058823529411764" d="M20,0h1M93,41h1M61,77h1M43,85h1M50,87h1"/><path stroke="#000000" opacity="0.25882352941176473" d="M21,0h1M32,0h1M65,0h1M76,0h1M97,21h1M18,61h1"/><path stroke="#000000" opacity="0.3058823529411765" d="M22,0h2M31,0h1M66,0h1M74,0h2M0,22h1M97,22h1M1,35h1M90,47h1M14,56h1M42,83h1M54,84h1M49,89h1"/><path stroke="#000000" opacity="0.3176470588235294" d="M24,0h1M73,0h1M18,1h1M79,1h1M56,4h1M4,42h1"/><path stroke="#000000" opacity="0.28627450980392155" d="M25,0h1M27,0h1M70,0h1M72,0h1M97,32h1M4,43h1M55,83h1"/><path stroke="#000000" opacity="0.2901960784313726" d="M26,0h1M28,0h1M69,0h1M71,0h1M5,11h1M1,36h1"/><path stroke="#000000" opacity="0.2980392156862745" d="M29,0h1M68,0h1M88,6h1M91,9h1M92,11h1M0,25h1M97,25h1M0,26h1M97,26h1M0,27h1M97,27h1M0,28h1M97,28h1M0,29h1M97,29h1M0,30h1M97,30h1"/><path stroke="#000000" opacity="0.30196078431372547" d="M30,0h1M67,0h1M38,2h1M59,2h1M9,6h1M8,7h1M6,9h1M0,23h1M97,23h1M0,24h1M97,24h1M0,31h1M97,31h1M1,34h1M7,47h1M36,78h1M47,88h1M48,89h1"/><path stroke="#000000" opacity="0.0784313725490196" d="M33,0h1M64,0h1M31,74h1M36,77h1"/><path stroke="#000000" opacity="0.043137254901960784" d="M77,0h1M32,1h1M39,2h1M58,2h1M1,21h1"/><path stroke="#000000" opacity="0.11372549019607843" d="M17,1h1M67,73h1"/><path stroke="#000000" opacity="0.30980392156862746" d="M19,1h1M34,1h2M62,1h2M78,1h1M40,3h1M57,3h1M96,18h1M1,19h1M96,19h1M96,34h1M96,35h1M83,56h1M30,72h1"/><path stroke="#000000" opacity="0.27058823529411763" d="M20,1h1M77,1h1M73,67h1"/><path stroke="#000000" opacity="0.050980392156862744" d="M21,1h1M76,1h1M0,20h1M97,20h1M96,21h1M4,41h1M12,53h1M85,53h1M53,86h1"/><path stroke="#000000" opacity="0.22745098039215686" d="M33,1h1M95,39h1M81,59h1M27,69h1"/><path stroke="#000000" opacity="0.18823529411764706" d="M36,1h1M80,59h1"/><path stroke="#000000" opacity="0.19215686274509805" d="M61,1h1"/><path stroke="#000000" opacity="0.2235294117647059" d="M64,1h1M51,7h1M16,58h1M71,69h1"/><path stroke="#000000" opacity="0.0392156862745098" d="M65,1h1M85,55h1M35,76h1"/><path stroke="#000000" opacity="0.10980392156862745" d="M80,1h1M9,7h1M37,78h1M48,88h1"/><path stroke="#000000" opacity="0.23921568627450981" d="M15,2h1M42,4h1M46,7h1M87,51h1M69,70h1M56,82h1"/><path stroke="#000000" opacity="0.3254901960784314" d="M16,2h1M60,2h1M81,2h1M11,5h1M44,6h1M2,16h1M95,16h1M3,40h1M94,40h1"/><path stroke="#000000" opacity="0.20784313725490197" d="M17,2h1M80,2h1M84,3h1M95,17h1M26,69h1M70,69h1M57,81h1"/><path stroke="#000000" opacity="0.12941176470588237" d="M36,2h1M88,51h1"/><path stroke="#000000" opacity="0.3215686274509804" d="M37,2h1M41,4h1M53,6h1M1,18h1M2,38h1M95,38h1"/><path stroke="#000000" opacity="0.12156862745098039" d="M61,2h1M42,5h1M9,51h1M29,72h1"/><path stroke="#000000" opacity="0.23529411764705882" d="M82,2h1M49,9h1M2,39h1M25,68h1M58,81h1"/><path stroke="#000000" opacity="0.21176470588235294" d="M13,3h1M10,5h1M5,10h1M48,10h2M3,13h1M81,58h1M39,81h1"/><path stroke="#000000" opacity="0.3333333333333333" d="M14,3h1M3,14h1M86,53h1"/><path stroke="#000000" opacity="0.09411764705882353" d="M15,3h1M82,3h1M3,15h1M30,73h1M42,84h1M49,88h1"/><path stroke="#000000" opacity="0.023529411764705882" d="M38,3h1M41,3h1M56,3h1M59,3h1M33,76h1"/><path stroke="#000000" opacity="0.29411764705882354" d="M39,3h1M58,3h1M0,32h1M3,41h1M67,72h1M37,79h1M41,82h1"/><path stroke="#000000" opacity="0.33725490196078434" d="M83,3h1M90,8h1M94,14h1M93,42h1M89,49h1M11,53h1"/><path stroke="#000000" opacity="0.08235294117647059" d="M11,4h1M4,11h1M54,85h1"/><path stroke="#000000" opacity="0.34901960784313724" d="M12,4h1M85,4h1M89,7h1M4,12h1M93,12h1M92,44h1M6,46h1M88,50h1M65,74h1"/><path stroke="#000000" opacity="0.13725490196078433" d="M13,4h1M55,5h1M93,13h1M41,83h1"/><path stroke="#000000" opacity="0.03137254901960784" d="M40,4h1M12,55h1"/><path stroke="#000000" opacity="0.24313725490196078" d="M55,4h1"/><path stroke="#000000" opacity="0.027450980392156862" d="M57,4h1M89,50h1M62,76h1M44,86h1M51,86h1"/><path stroke="#000000" opacity="0.1411764705882353" d="M84,4h1M86,52h1M68,72h1"/><path stroke="#000000" opacity="0.07450980392156863" d="M86,4h1M93,11h1M47,87h1"/><path stroke="#000000" opacity="0.40784313725490196" d="M43,5h1"/><path stroke="#000000" opacity="0.06666666666666667" d="M44,5h1M8,8h1"/><path stroke="#000000" opacity="0.054901960784313725" d="M53,5h1M5,43h1M32,75h1"/><path stroke="#000000" opacity="0.3686274509803922" d="M54,5h1M85,54h1M64,75h1"/><path stroke="#000000" opacity="0.2549019607843137" d="M86,5h1M50,8h1M1,20h1M95,37h1M87,52h1M15,57h1M72,68h1M28,70h1"/><path stroke="#000000" opacity="0.2" d="M87,5h1M17,59h1M26,68h1M57,82h1"/><path stroke="#000000" opacity="0.16470588235294117" d="M10,6h1M15,58h1"/><path stroke="#000000" opacity="0.00784313725490196" d="M43,6h1M4,44h1M86,54h1"/><path stroke="#000000" opacity="0.15294117647058825" d="M45,6h1M0,33h1M89,48h1M11,52h1M28,71h1"/><path stroke="#000000" opacity="0.1568627450980392" d="M52,6h1M96,33h1M58,80h1M56,83h1"/><path stroke="#000000" opacity="0.00392156862745098" d="M54,6h1M0,34h1M97,34h1M2,40h1M95,40h1M93,44h1M7,46h1M90,46h1M11,54h1M33,74h1M64,74h1M62,78h1M44,84h1M51,88h1"/><path stroke="#000000" opacity="0.16862745098039217" d="M87,6h1M51,8h1M91,10h1M18,60h1M79,60h1M78,61h1M77,62h1M72,67h1M69,71h1"/><path stroke="#000000" opacity="0.23137254901960785" d="M45,7h1M48,9h1M95,15h1M40,81h1"/><path stroke="#000000" opacity="0.24705882352941178" d="M52,7h1M2,15h1M2,37h1M10,52h1M17,60h1M80,60h1M38,80h1"/><path stroke="#000000" opacity="0.09803921568627451" d="M88,7h1"/><path stroke="#000000" opacity="0.3411764705882353" d="M7,8h1M5,44h1"/><path stroke="#000000" opacity="0.17254901960784313" d="M46,8h1M6,45h1M92,45h1M25,67h1"/><path stroke="#000000" opacity="0.25098039215686274" d="M47,8h1M10,51h1M23,66h1"/><path stroke="#000000" opacity="0.07058823529411765" d="M89,8h1M1,37h1"/><path stroke="#000000" opacity="0.10196078431372549" d="M7,9h1"/><path stroke="#000000" opacity="0.1843137254901961" d="M47,9h1M5,45h1M19,61h1M20,62h1M21,63h1M22,64h1M40,82h1"/><path stroke="#000000" opacity="0.1803921568627451" d="M50,9h1M23,65h1M71,68h1M27,70h1"/><path stroke="#000000" opacity="0.10588235294117647" d="M90,9h1"/><path stroke="#000000" opacity="0.1607843137254902" d="M6,10h1M91,45h1M24,66h1"/><path stroke="#000000" opacity="0.20392156862745098" d="M92,10h1"/><path stroke="#000000" opacity="0.1450980392156863" d="M4,13h1M97,33h1M8,48h1M74,65h1M73,66h1M38,79h1"/><path stroke="#000000" opacity="0.21568627450980393" d="M94,13h1M90,48h1M16,59h1"/><path stroke="#000000" opacity="0.09019607843137255" d="M94,15h1M94,39h1M13,56h1M60,78h1"/><path stroke="#000000" opacity="0.11764705882352941" d="M1,17h1M55,84h1"/><path stroke="#000000" opacity="0.19607843137254902" d="M2,17h1M70,70h1M39,80h1"/><path stroke="#000000" opacity="0.12549019607843137" d="M96,17h1M59,79h1"/><path stroke="#000000" opacity="0.26666666666666666" d="M96,20h1M0,21h1M82,57h1M76,64h1M75,65h1M74,66h1M24,67h1"/><path stroke="#000000" opacity="0.011764705882352941" d="M1,32h1M3,42h1M94,42h1M84,54h1M63,75h1M34,77h1M52,85h1M45,87h1"/><path stroke="#000000" opacity="0.01568627450980392" d="M96,32h1M2,36h1M88,49h1M13,54h1M34,75h1M63,77h1M45,85h1"/><path stroke="#000000" opacity="0.14901960784313725" d="M1,33h1M83,57h1M76,63h1M75,64h1"/><path stroke="#000000" opacity="0.0196078431372549" d="M95,36h1M9,49h1M52,87h1"/><path stroke="#000000" opacity="0.2823529411764706" d="M96,36h1M29,71h1M59,80h1"/><path stroke="#000000" opacity="0.06274509803921569" d="M96,37h1M92,43h1M6,47h1"/><path stroke="#000000" opacity="0.08627450980392157" d="M3,39h1M84,56h1M66,74h1"/><path stroke="#000000" opacity="0.27450980392156865" d="M94,41h1M79,61h1M78,62h1"/><path stroke="#000000" opacity="0.2784313725490196" d="M93,43h1"/><path stroke="#000000" opacity="0.34509803921568627" d="M91,46h1M9,50h1"/><path stroke="#000000" opacity="0.058823529411764705" d="M91,47h1M65,75h1"/><path stroke="#000000" opacity="0.2196078431372549" d="M7,48h1"/><path stroke="#000000" opacity="0.36470588235294116" d="M8,49h1M12,54h1M34,76h1M63,76h1M62,77h1M44,85h1M45,86h1"/><path stroke="#000000" opacity="0.03529411764705882" d="M8,50h1M64,76h1M46,86h1"/><path stroke="#000000" opacity="0.3803921568627451" d="M13,55h1M46,87h1"/><path stroke="#000000" opacity="0.37254901960784315" d="M84,55h1M33,75h1M61,78h1M53,85h1"/><path stroke="#000000" opacity="0.13333333333333333" d="M14,57h1"/><path stroke="#000000" opacity="0.17647058823529413" d="M82,58h1"/><path stroke="#000000" opacity="0.2627450980392157" d="M19,62h1M20,63h1M77,63h1M21,64h1M22,65h1M68,71h1"/><path stroke="#000000" opacity="0.3568627450980392" d="M31,73h1"/><path stroke="#000000" opacity="0.3137254901960784" d="M66,73h1M60,79h1"/><path stroke="#000000" opacity="0.35294117647058826" d="M32,74h1"/><path stroke="#000000" opacity="0.3764705882352941" d="M35,77h1M43,84h1M50,88h1"/><path stroke="#000000" opacity="0.38823529411764707" d="M52,86h1"/><path stroke="#000000" opacity="0.3607843137254902" d="M51,87h1"/></svg>
