<svg xmlns="http://www.w3.org/2000/svg" shape-rendering="crispEdges" viewBox="0 -0.5 170 120" width="170" height="120"><metadata>Generated with pixel-perfect-svg https://github.com/kagof/pixel-perfect-svg</metadata><path stroke="#000000" opacity="0.06666666666666667" d="M27,0h53M67,103h1"/><path stroke="#000000" d="M56,29h11M103,29h11M54,30h18M98,30h18M52,31h4M67,31h7M96,31h7M114,31h4M10,32h6M51,32h3M72,32h4M94,32h4M116,32h3M154,32h6M10,33h6M49,33h4M74,33h4M92,33h4M117,33h4M154,33h6M10,34h2M16,34h4M47,34h4M76,34h4M90,34h4M119,34h4M150,34h4M158,34h2M10,35h2M16,35h4M46,35h3M78,35h4M88,35h4M121,35h3M150,35h4M158,35h2M10,36h2M20,36h4M45,36h3M80,36h2M88,36h2M122,36h3M146,36h4M158,36h2M10,37h2M20,37h4M44,37h3M81,37h2M87,37h2M123,37h3M146,37h4M158,37h2M10,38h2M24,38h4M43,38h3M81,38h3M86,38h3M124,38h3M142,38h4M158,38h2M10,39h2M24,39h4M42,39h3M82,39h6M125,39h3M142,39h4M158,39h2M10,40h2M28,40h4M41,40h3M83,40h4M126,40h3M138,40h4M158,40h2M10,41h2M28,41h4M40,41h3M84,41h2M127,41h3M138,41h4M158,41h2M10,42h2M32,42h2M39,42h3M84,42h2M128,42h3M136,42h2M158,42h2M10,43h2M32,43h2M39,43h3M128,43h3M136,43h2M158,43h2M10,44h2M34,44h3M38,44h3M129,44h3M133,44h3M158,44h2M10,45h2M34,45h3M38,45h2M130,45h2M133,45h3M158,45h2M8,46h10M35,46h2M38,46h2M130,46h2M133,46h2M152,46h10M8,47h10M35,47h4M131,47h4M152,47h10M8,48h2M18,48h4M36,48h3M131,48h3M148,48h4M160,48h2M8,49h2M18,49h4M36,49h3M131,49h3M148,49h4M160,49h2M8,50h2M36,50h2M132,50h2M160,50h2M8,51h2M36,51h2M132,51h2M160,51h2M8,52h2M36,52h2M132,52h2M160,52h2M8,53h2M36,53h2M132,53h2M160,53h2M10,54h2M22,54h6M36,54h2M132,54h2M142,54h6M158,54h2M10,55h2M22,55h6M36,55h2M132,55h2M142,55h6M158,55h2M12,56h4M20,56h2M28,56h2M36,56h2M132,56h2M140,56h2M148,56h2M154,56h4M12,57h4M20,57h2M28,57h2M36,57h2M132,57h2M140,57h2M148,57h2M154,57h4M10,58h2M18,58h2M28,58h2M36,58h2M132,58h2M140,58h2M150,58h2M158,58h2M10,59h2M18,59h2M28,59h2M36,59h2M132,59h2M140,59h2M150,59h2M158,59h2M12,60h2M18,60h2M24,60h4M36,60h2M132,60h2M142,60h4M150,60h2M156,60h2M12,61h2M18,61h2M24,61h4M34,61h4M132,61h4M142,61h4M150,61h2M156,61h2M14,62h6M32,62h6M132,62h6M150,62h6M14,63h6M32,63h2M37,63h2M131,63h2M136,63h2M150,63h6M20,64h2M30,64h2M37,64h2M131,64h2M138,64h2M148,64h2M20,65h2M30,65h2M37,65h2M131,65h2M138,65h2M148,65h2M22,66h8M38,66h2M130,66h2M140,66h8M22,67h8M38,67h2M130,67h2M140,67h8M38,68h3M129,68h3M39,69h2M129,69h2M39,70h3M128,70h3M40,71h2M128,71h2M40,72h3M127,72h3M41,73h2M127,73h2M41,74h3M126,74h3M42,75h3M125,75h3M43,76h2M125,76h2M43,77h3M124,77h3M44,78h3M123,78h3M45,79h2M123,79h2M45,80h3M122,80h3M46,81h3M121,81h3M47,82h3M120,82h3M48,83h3M119,83h3M49,84h3M118,84h3M50,85h3M117,85h3M51,86h3M116,86h3M52,87h3M115,87h3M53,88h3M114,88h3M54,89h3M113,89h3M55,90h3M112,90h3M56,91h3M111,91h3M57,92h3M110,92h3M58,93h3M109,93h3M59,94h3M108,94h3M60,95h3M107,95h3M61,96h3M106,96h3M62,97h3M105,97h3M63,98h3M104,98h3M64,99h3M103,99h3M65,100h3M102,100h3M66,101h3M101,101h3M67,102h3M100,102h3M68,103h3M99,103h3M69,104h3M98,104h3M70,105h3M97,105h3M71,106h3M96,106h3M72,107h3M95,107h3M73,108h3M94,108h3M74,109h3M93,109h3M75,110h3M92,110h3M76,111h3M91,111h3M77,112h3M90,112h3M78,113h3M89,113h3M79,114h3M88,114h3M80,115h3M87,115h3M81,116h3M86,116h3M82,117h6M83,118h4"/><path stroke="#000000" opacity="0.01568627450980392" d="M67,29h1M102,29h1M78,33h1M40,40h1M130,71h1M40,73h1M129,73h1M97,108h1"/><path stroke="#000000" opacity="0.00784313725490196" d="M51,31h1"/><path stroke="#000000" opacity="0.023529411764705882" d="M74,31h1M95,31h1M122,83h1"/><path stroke="#000000" opacity="0.0196078431372549" d="M49,32h1M91,33h1M82,36h1M87,36h1M128,39h1M39,71h1M47,83h1M71,107h1"/><path stroke="#000000" opacity="0.10588235294117647" d="M50,32h1M52,88h1M65,101h1"/><path stroke="#000000" opacity="0.03529411764705882" d="M76,32h1M93,32h1M46,34h1M83,37h1M86,37h1"/><path stroke="#000000" opacity="0.10980392156862745" d="M119,32h1M117,88h1M62,98h1M106,99h1"/><path stroke="#000000" opacity="0.10196078431372549" d="M48,33h1M105,100h1"/><path stroke="#000000" opacity="0.07450980392156863" d="M121,33h1M45,35h1M102,103h1"/><path stroke="#000000" opacity="0.00392156862745098" d="M123,34h1M38,69h1M131,69h1M72,108h1M96,109h1"/><path stroke="#000000" opacity="0.043137254901960784" d="M124,35h1M37,66h1M48,84h1M69,105h1"/><path stroke="#000000" opacity="0.09019607843137255" d="M44,36h1M50,86h1M119,86h1M64,100h1M104,101h1"/><path stroke="#000000" opacity="0.058823529411764705" d="M125,36h1M49,85h1M68,104h1"/><path stroke="#000000" opacity="0.09803921568627451" d="M43,37h1M118,87h1M63,99h1"/><path stroke="#000000" opacity="0.06274509803921569" d="M126,37h1M41,39h1M120,85h1M101,104h1"/><path stroke="#000000" opacity="0.0784313725490196" d="M42,38h1M66,102h1"/><path stroke="#000000" opacity="0.03137254901960784" d="M84,38h1M70,106h1"/><path stroke="#000000" opacity="0.027450980392156862" d="M85,38h1M37,46h1M98,107h1"/><path stroke="#000000" opacity="0.047058823529411764" d="M127,38h1M121,84h1"/><path stroke="#ffffff" d="M64,39h4M98,39h12M64,40h4M98,40h12M64,41h4M98,41h12M64,42h4M98,42h12M64,43h8M102,43h12M64,44h8M102,44h12M64,45h8M102,45h12M64,46h8M102,46h12M72,47h4M106,47h12M72,48h4M106,48h12M72,49h4M106,49h12M72,50h4M106,50h12M110,51h12M110,52h12M110,53h12M110,54h12M114,55h8M114,56h8M114,57h8M114,58h8M118,59h4M118,60h4M118,61h4M118,62h4M118,63h4M118,64h4M118,65h4M118,66h4"/><path stroke="#000000" opacity="0.0392156862745098" d="M132,66h1M44,79h1M125,79h1M99,106h1"/><path stroke="#000000" opacity="0.054901960784313725" d="M42,76h1M100,105h1"/><path stroke="#000000" opacity="0.050980392156862744" d="M127,76h1"/><path stroke="#000000" opacity="0.09411764705882353" d="M51,87h1"/><path stroke="#000000" opacity="0.12549019607843137" d="M53,89h1M116,89h1M115,90h1M114,91h1M113,92h1M112,93h1M111,94h1M110,95h1M108,97h1"/><path stroke="#000000" opacity="0.12156862745098039" d="M54,90h1M55,91h1M56,92h1M57,93h1M58,94h1M59,95h1"/><path stroke="#000000" opacity="0.12941176470588237" d="M60,96h1M109,96h1"/><path stroke="#000000" opacity="0.11764705882352941" d="M61,97h1M107,98h1"/><path stroke="#000000" opacity="0.08235294117647059" d="M103,102h1"/></svg>
