<svg xmlns="http://www.w3.org/2000/svg" shape-rendering="crispEdges" viewBox="0 -0.5 28 24" width="28" height="24"><metadata>Generated with pixel-perfect-svg https://github.com/kagof/pixel-perfect-svg</metadata><path stroke="#ffffff" d="M6,0h4M18,0h4M6,1h4M18,1h4M4,2h2M10,2h2M16,2h2M22,2h2M4,3h2M10,3h2M16,3h2M22,3h2M2,4h2M12,4h4M24,4h2M2,5h2M12,5h4M24,5h2M0,6h2M26,6h2M0,7h2M26,7h2M0,8h2M26,8h2M0,9h2M26,9h2M2,10h2M24,10h2M2,11h2M24,11h2M2,12h2M24,12h2M2,13h2M24,13h2M0,14h2M26,14h2M0,15h2M26,15h2M0,16h2M26,16h2M0,17h2M26,17h2M2,18h2M24,18h2M2,19h2M24,19h2M4,20h2M22,20h2M4,21h2M22,21h2M6,22h16M6,23h16"/><path stroke="#8d2e2a" d="M6,2h4M18,2h4M6,3h4M18,3h4M4,4h2M10,4h2M16,4h2M22,4h2M4,5h2M10,5h2M16,5h2M22,5h2M2,6h2M6,6h4M12,6h4M18,6h4M24,6h2M2,7h2M6,7h4M12,7h4M18,7h4M24,7h2M2,8h2M6,8h4M18,8h4M24,8h2M2,9h2M6,9h4M18,9h4M24,9h2M4,10h2M22,10h2M4,11h2M22,11h2M4,12h2M10,12h2M16,12h2M22,12h2M4,13h2M10,13h2M16,13h2M22,13h2M2,14h2M10,14h2M16,14h2M24,14h2M2,15h2M10,15h2M16,15h2M24,15h2M2,16h2M12,16h4M24,16h2M2,17h2M12,17h4M24,17h2M4,18h2M22,18h2M4,19h2M22,19h2M6,20h16M6,21h16"/><path stroke="#ffdcaf" d="M6,4h4M18,4h4M6,5h4M18,5h4M4,6h2M10,6h2M16,6h2M22,6h2M4,7h2M10,7h2M16,7h2M22,7h2M4,8h2M10,8h8M22,8h2M4,9h2M10,9h8M22,9h2M6,10h16M6,11h16M6,12h4M12,12h4M18,12h4M6,13h4M12,13h4M18,13h4M4,14h6M12,14h4M18,14h6M4,15h6M12,15h4M18,15h6M4,16h8M16,16h8M4,17h8M16,17h8M6,18h16M6,19h16"/></svg>
