<svg xmlns="http://www.w3.org/2000/svg" shape-rendering="crispEdges" viewBox="0 -0.5 480 32" width="480" height="32"><metadata>Generated with pixel-perfect-svg https://github.com/kagof/pixel-perfect-svg</metadata><path stroke="#2f1d17" d="M8,0h464M8,1h464M8,2h464M8,3h464M4,4h472M4,5h472M4,6h472M4,7h472M0,8h12M468,8h12M0,9h12M468,9h12M0,10h12M468,10h12M0,11h12M468,11h12M0,12h8M472,12h8M0,13h8M472,13h8M0,14h8M472,14h8M0,15h8M472,15h8M0,16h8M472,16h8M0,17h8M472,17h8M0,18h8M472,18h8M0,19h8M472,19h8M0,20h12M468,20h12M0,21h12M468,21h12M0,22h12M468,22h12M0,23h12M468,23h12M4,24h472M4,25h472M4,26h472M4,27h472M8,28h464M8,29h464M8,30h464M8,31h464"/></svg>
