<svg xmlns="http://www.w3.org/2000/svg" shape-rendering="crispEdges" viewBox="0 -0.5 384 384" width="384" height="384"><metadata>Generated with pixel-perfect-svg https://github.com/kagof/pixel-perfect-svg</metadata><path stroke="#4d5b79" d="M160,88h60M160,89h60M160,90h60M160,91h60M148,92h12M220,92h12M320,92h32M148,93h12M220,93h12M320,93h32M148,94h12M220,94h12M320,94h32M148,95h12M220,95h12M320,95h32M136,96h12M232,96h12M308,96h12M348,96h4M136,97h12M232,97h12M308,97h12M348,97h4M136,98h12M232,98h12M308,98h12M348,98h4M136,99h12M232,99h12M308,99h12M348,99h4M128,100h8M244,100h8M300,100h8M348,100h4M128,101h8M244,101h8M300,101h8M348,101h4M128,102h8M244,102h8M300,102h8M348,102h4M128,103h8M244,103h8M300,103h8M348,103h4M120,104h8M252,104h8M292,104h8M348,104h4M120,105h8M252,105h8M292,105h8M348,105h4M120,106h8M252,106h8M292,106h8M348,106h4M120,107h8M252,107h8M292,107h8M348,107h4M116,108h4M260,108h4M288,108h4M344,108h4M116,109h4M260,109h4M288,109h4M344,109h4M116,110h4M260,110h4M288,110h4M344,110h4M116,111h4M260,111h4M288,111h4M344,111h4M100,112h8M112,112h4M264,112h4M284,112h4M344,112h4M100,113h8M112,113h4M264,113h4M284,113h4M344,113h4M100,114h8M112,114h4M264,114h4M284,114h4M344,114h4M100,115h8M112,115h4M264,115h4M284,115h4M344,115h4M96,116h4M108,116h4M268,116h4M280,116h4M340,116h4M96,117h4M108,117h4M268,117h4M280,117h4M340,117h4M96,118h4M108,118h4M268,118h4M280,118h4M340,118h4M96,119h4M108,119h4M268,119h4M280,119h4M340,119h4M92,120h4M272,120h8M336,120h4M92,121h4M272,121h8M336,121h4M92,122h4M272,122h8M336,122h4M92,123h4M272,123h8M336,123h4M92,124h4M328,124h8M92,125h4M328,125h8M92,126h4M328,126h8M92,127h4M328,127h8M96,128h4M320,128h8M96,129h4M320,129h8M96,130h4M320,130h8M96,131h4M320,131h8M96,132h4M312,132h8M96,133h4M312,133h8M96,134h4M312,134h8M96,135h4M312,135h8M96,136h4M320,136h8M96,137h4M320,137h8M96,138h4M320,138h8M96,139h4M320,139h8M92,140h4M328,140h8M92,141h4M328,141h8M92,142h4M328,142h8M92,143h4M328,143h8M92,144h4M272,144h8M336,144h4M92,145h4M272,145h8M336,145h4M92,146h4M272,146h8M336,146h4M92,147h4M272,147h8M336,147h4M96,148h4M108,148h4M268,148h4M280,148h4M340,148h4M96,149h4M108,149h4M268,149h4M280,149h4M340,149h4M96,150h4M108,150h4M268,150h4M280,150h4M340,150h4M96,151h4M108,151h4M268,151h4M280,151h4M340,151h4M100,152h8M112,152h4M264,152h4M284,152h4M344,152h4M100,153h8M112,153h4M264,153h4M284,153h4M344,153h4M100,154h8M112,154h4M264,154h4M284,154h4M344,154h4M100,155h8M112,155h4M264,155h4M284,155h4M344,155h4M116,156h4M260,156h4M288,156h4M344,156h4M116,157h4M260,157h4M288,157h4M344,157h4M116,158h4M260,158h4M288,158h4M344,158h4M116,159h4M260,159h4M288,159h4M344,159h4M120,160h8M252,160h8M292,160h8M348,160h4M120,161h8M252,161h8M292,161h8M348,161h4M120,162h8M252,162h8M292,162h8M348,162h4M120,163h8M252,163h8M292,163h8M348,163h4M128,164h8M244,164h8M300,164h8M348,164h4M128,165h8M244,165h8M300,165h8M348,165h4M128,166h8M244,166h8M300,166h8M348,166h4M128,167h8M244,167h8M300,167h8M348,167h4M136,168h12M232,168h12M308,168h12M348,168h4M136,169h12M232,169h12M308,169h12M348,169h4M136,170h12M232,170h12M308,170h12M348,170h4M136,171h12M232,171h12M308,171h12M348,171h4M148,172h12M220,172h12M320,172h32M148,173h12M220,173h12M320,173h32M148,174h12M220,174h12M320,174h32M148,175h12M220,175h12M320,175h32M160,176h60M160,177h60M160,178h60M160,179h60"/><path stroke="#ffffff" d="M160,92h60M160,93h60M160,94h60M160,95h60M148,96h12M220,96h12M320,96h28M148,97h12M220,97h12M320,97h28M148,98h12M220,98h12M320,98h28M148,99h12M220,99h12M320,99h28M136,100h12M184,100h4M208,100h4M232,100h12M308,100h12M344,100h4M136,101h12M184,101h4M208,101h4M232,101h12M308,101h12M344,101h4M136,102h12M184,102h4M208,102h4M232,102h12M308,102h12M344,102h4M136,103h12M184,103h4M208,103h4M232,103h12M308,103h12M344,103h4M128,104h8M244,104h8M300,104h8M344,104h4M128,105h8M244,105h8M300,105h8M344,105h4M128,106h8M244,106h8M300,106h8M344,106h4M128,107h8M244,107h8M300,107h8M344,107h4M120,108h8M216,108h4M252,108h8M292,108h8M340,108h4M120,109h8M216,109h4M252,109h8M292,109h8M340,109h4M120,110h8M216,110h4M252,110h8M292,110h8M340,110h4M120,111h8M216,111h4M252,111h8M292,111h8M340,111h4M116,112h4M176,112h4M216,112h4M240,112h4M260,112h4M288,112h4M308,112h4M340,112h4M116,113h4M176,113h4M216,113h4M240,113h4M260,113h4M288,113h4M308,113h4M340,113h4M116,114h4M176,114h4M216,114h4M240,114h4M260,114h4M288,114h4M308,114h4M340,114h4M116,115h4M176,115h4M216,115h4M240,115h4M260,115h4M288,115h4M308,115h4M340,115h4M100,116h8M112,116h4M172,116h4M180,116h4M212,116h4M220,116h4M264,116h4M284,116h4M304,116h4M312,116h4M336,116h4M100,117h8M112,117h4M172,117h4M180,117h4M212,117h4M220,117h4M264,117h4M284,117h4M304,117h4M312,117h4M336,117h4M100,118h8M112,118h4M172,118h4M180,118h4M212,118h4M220,118h4M264,118h4M284,118h4M304,118h4M312,118h4M336,118h4M100,119h8M112,119h4M172,119h4M180,119h4M212,119h4M220,119h4M264,119h4M284,119h4M304,119h4M312,119h4M336,119h4M96,120h4M108,120h4M132,120h4M168,120h4M176,120h4M184,120h4M208,120h4M216,120h4M224,120h4M248,120h4M268,120h4M280,120h4M308,120h4M328,120h8M96,121h4M108,121h4M132,121h4M168,121h4M176,121h4M184,121h4M208,121h4M216,121h4M224,121h4M248,121h4M268,121h4M280,121h4M308,121h4M328,121h8M96,122h4M108,122h4M132,122h4M168,122h4M176,122h4M184,122h4M208,122h4M216,122h4M224,122h4M248,122h4M268,122h4M280,122h4M308,122h4M328,122h8M96,123h4M108,123h4M132,123h4M168,123h4M176,123h4M184,123h4M208,123h4M216,123h4M224,123h4M248,123h4M268,123h4M280,123h4M308,123h4M328,123h8M96,124h4M128,124h4M136,124h4M152,124h4M172,124h4M180,124h4M212,124h4M220,124h4M244,124h4M252,124h4M272,124h8M320,124h8M96,125h4M128,125h4M136,125h4M152,125h4M172,125h4M180,125h4M212,125h4M220,125h4M244,125h4M252,125h4M272,125h8M320,125h8M96,126h4M128,126h4M136,126h4M152,126h4M172,126h4M180,126h4M212,126h4M220,126h4M244,126h4M252,126h4M272,126h8M320,126h8M96,127h4M128,127h4M136,127h4M152,127h4M172,127h4M180,127h4M212,127h4M220,127h4M244,127h4M252,127h4M272,127h8M320,127h8M100,128h4M132,128h4M176,128h4M216,128h4M248,128h4M284,128h4M312,128h8M100,129h4M132,129h4M176,129h4M216,129h4M248,129h4M284,129h4M312,129h8M100,130h4M132,130h4M176,130h4M216,130h4M248,130h4M284,130h4M312,130h8M100,131h4M132,131h4M176,131h4M216,131h4M248,131h4M284,131h4M312,131h8M100,132h4M216,132h4M268,132h4M280,132h4M288,132h4M308,132h4M100,133h4M216,133h4M268,133h4M280,133h4M288,133h4M308,133h4M100,134h4M216,134h4M268,134h4M280,134h4M288,134h4M308,134h4M100,135h4M216,135h4M268,135h4M280,135h4M288,135h4M308,135h4M100,136h4M188,136h4M252,136h4M284,136h4M312,136h8M100,137h4M188,137h4M252,137h4M284,137h4M312,137h8M100,138h4M188,138h4M252,138h4M284,138h4M312,138h8M100,139h4M188,139h4M252,139h4M284,139h4M312,139h8M96,140h4M116,140h4M140,140h4M224,140h4M272,140h8M320,140h8M96,141h4M116,141h4M140,141h4M224,141h4M272,141h8M320,141h8M96,142h4M116,142h4M140,142h4M224,142h4M272,142h8M320,142h8M96,143h4M116,143h4M140,143h4M224,143h4M272,143h8M320,143h8M96,144h4M108,144h4M136,144h4M144,144h4M244,144h4M268,144h4M280,144h4M308,144h4M328,144h8M96,145h4M108,145h4M136,145h4M144,145h4M244,145h4M268,145h4M280,145h4M308,145h4M328,145h8M96,146h4M108,146h4M136,146h4M144,146h4M244,146h4M268,146h4M280,146h4M308,146h4M328,146h8M96,147h4M108,147h4M136,147h4M144,147h4M244,147h4M268,147h4M280,147h4M308,147h4M328,147h8M100,148h8M112,148h4M140,148h4M172,148h4M212,148h4M240,148h4M248,148h4M264,148h4M284,148h4M304,148h4M312,148h4M336,148h4M100,149h8M112,149h4M140,149h4M172,149h4M212,149h4M240,149h4M248,149h4M264,149h4M284,149h4M304,149h4M312,149h4M336,149h4M100,150h8M112,150h4M140,150h4M172,150h4M212,150h4M240,150h4M248,150h4M264,150h4M284,150h4M304,150h4M312,150h4M336,150h4M100,151h8M112,151h4M140,151h4M172,151h4M212,151h4M240,151h4M248,151h4M264,151h4M284,151h4M304,151h4M312,151h4M336,151h4M116,152h4M168,152h4M176,152h4M208,152h4M216,152h4M244,152h4M260,152h4M288,152h4M308,152h4M324,152h4M340,152h4M116,153h4M168,153h4M176,153h4M208,153h4M216,153h4M244,153h4M260,153h4M288,153h4M308,153h4M324,153h4M340,153h4M116,154h4M168,154h4M176,154h4M208,154h4M216,154h4M244,154h4M260,154h4M288,154h4M308,154h4M324,154h4M340,154h4M116,155h4M168,155h4M176,155h4M208,155h4M216,155h4M244,155h4M260,155h4M288,155h4M308,155h4M324,155h4M340,155h4M120,156h8M172,156h4M212,156h4M252,156h8M292,156h8M320,156h4M328,156h4M340,156h4M120,157h8M172,157h4M212,157h4M252,157h8M292,157h8M320,157h4M328,157h4M340,157h4M120,158h8M172,158h4M212,158h4M252,158h8M292,158h8M320,158h4M328,158h4M340,158h4M120,159h8M172,159h4M212,159h4M252,159h8M292,159h8M320,159h4M328,159h4M340,159h4M128,160h8M244,160h8M300,160h8M324,160h4M344,160h4M128,161h8M244,161h8M300,161h8M324,161h4M344,161h4M128,162h8M244,162h8M300,162h8M324,162h4M344,162h4M128,163h8M244,163h8M300,163h8M324,163h4M344,163h4M136,164h12M232,164h12M308,164h12M344,164h4M136,165h12M232,165h12M308,165h12M344,165h4M136,166h12M232,166h12M308,166h12M344,166h4M136,167h12M232,167h12M308,167h12M344,167h4M148,168h12M220,168h12M320,168h28M148,169h12M220,169h12M320,169h28M148,170h12M220,170h12M320,170h28M148,171h12M220,171h12M320,171h28M160,172h60M160,173h60M160,174h60M160,175h60"/><path stroke="#8897b8" d="M160,96h4M160,97h4M160,98h4M160,99h4M148,100h12M148,101h12M148,102h12M148,103h12M136,104h28M136,105h28M136,106h28M136,107h28M128,108h32M128,109h32M128,110h32M128,111h32M120,112h44M120,113h44M120,114h44M120,115h44M116,116h44M116,117h44M116,118h44M116,119h44M100,120h8M112,120h20M136,120h28M100,121h8M112,121h20M136,121h28M100,122h8M112,122h20M136,122h28M100,123h8M112,123h20M136,123h28M100,124h28M132,124h4M140,124h12M156,124h4M100,125h28M132,125h4M140,125h12M156,125h4M100,126h28M132,126h4M140,126h12M156,126h4M100,127h28M132,127h4M140,127h12M156,127h4M104,128h28M136,128h28M104,129h28M136,129h28M104,130h28M136,130h28M104,131h28M136,131h28M104,132h56M104,133h56M104,134h56M104,135h56M104,136h60M104,137h60M104,138h60M104,139h60M100,140h16M120,140h20M144,140h16M100,141h16M120,141h20M144,141h16M100,142h16M120,142h20M144,142h16M100,143h16M120,143h20M144,143h16M100,144h8M112,144h24M140,144h4M148,144h16M100,145h8M112,145h24M140,145h4M148,145h16M100,146h8M112,146h24M140,146h4M148,146h16M100,147h8M112,147h24M140,147h4M148,147h16M116,148h24M144,148h16M116,149h24M144,149h16M116,150h24M144,150h16M116,151h24M144,151h16M120,152h44M120,153h44M120,154h44M120,155h44M128,156h32M128,157h32M128,158h32M128,159h32M136,160h28M136,161h28M136,162h28M136,163h28M148,164h12M148,165h12M148,166h12M148,167h12M160,168h4M160,169h4M160,170h4M160,171h4"/><path stroke="#94acd0" d="M164,96h36M164,97h36M164,98h36M164,99h36M160,100h24M188,100h16M160,101h24M188,101h16M160,102h24M188,102h16M160,103h24M188,103h16M164,104h36M164,105h36M164,106h36M164,107h36M160,108h44M160,109h44M160,110h44M160,111h44M164,112h12M180,112h20M164,113h12M180,113h20M164,114h12M180,114h20M164,115h12M180,115h20M160,116h12M176,116h4M184,116h20M160,117h12M176,117h4M184,117h20M160,118h12M176,118h4M184,118h20M160,119h12M176,119h4M184,119h20M164,120h4M172,120h4M180,120h4M188,120h12M164,121h4M172,121h4M180,121h4M188,121h12M164,122h4M172,122h4M180,122h4M188,122h12M164,123h4M172,123h4M180,123h4M188,123h12M160,124h12M176,124h4M184,124h20M160,125h12M176,125h4M184,125h20M160,126h12M176,126h4M184,126h20M160,127h12M176,127h4M184,127h20M164,128h12M180,128h20M164,129h12M180,129h20M164,130h12M180,130h20M164,131h12M180,131h20M160,132h44M160,133h44M160,134h44M160,135h44M164,136h24M192,136h8M164,137h24M192,137h8M164,138h24M192,138h8M164,139h24M192,139h8M160,140h44M160,141h44M160,142h44M160,143h44M164,144h36M164,145h36M164,146h36M164,147h36M160,148h12M176,148h28M160,149h12M176,149h28M160,150h12M176,150h28M160,151h12M176,151h28M164,152h4M172,152h4M180,152h20M164,153h4M172,153h4M180,153h20M164,154h4M172,154h4M180,154h20M164,155h4M172,155h4M180,155h20M160,156h12M176,156h28M160,157h12M176,157h28M160,158h12M176,158h28M160,159h12M176,159h28M164,160h36M164,161h36M164,162h36M164,163h36M160,164h44M160,165h44M160,166h44M160,167h44M164,168h36M164,169h36M164,170h36M164,171h36"/><path stroke="#a5bfe4" d="M200,96h20M200,97h20M200,98h20M200,99h20M204,100h4M212,100h20M204,101h4M212,101h20M204,102h4M212,102h20M204,103h4M212,103h20M200,104h36M200,105h36M200,106h36M200,107h36M204,108h12M220,108h12M204,109h12M220,109h12M204,110h12M220,110h12M204,111h12M220,111h12M200,112h16M220,112h16M200,113h16M220,113h16M200,114h16M220,114h16M200,115h16M220,115h16M204,116h8M216,116h4M224,116h8M204,117h8M216,117h4M224,117h8M204,118h8M216,118h4M224,118h8M204,119h8M216,119h4M224,119h8M200,120h8M212,120h4M220,120h4M228,120h8M200,121h8M212,121h4M220,121h4M228,121h8M200,122h8M212,122h4M220,122h4M228,122h8M200,123h8M212,123h4M220,123h4M228,123h8M204,124h8M216,124h4M224,124h8M204,125h8M216,125h4M224,125h8M204,126h8M216,126h4M224,126h8M204,127h8M216,127h4M224,127h8M200,128h16M220,128h16M200,129h16M220,129h16M200,130h16M220,130h16M200,131h16M220,131h16M204,132h12M220,132h12M204,133h12M220,133h12M204,134h12M220,134h12M204,135h12M220,135h12M200,136h36M200,137h36M200,138h36M200,139h36M204,140h20M228,140h4M204,141h20M228,141h4M204,142h20M228,142h4M204,143h20M228,143h4M200,144h36M200,145h36M200,146h36M200,147h36M204,148h8M216,148h16M204,149h8M216,149h16M204,150h8M216,150h16M204,151h8M216,151h16M200,152h8M212,152h4M220,152h16M200,153h8M212,153h4M220,153h16M200,154h8M212,154h4M220,154h16M200,155h8M212,155h4M220,155h16M204,156h8M216,156h16M204,157h8M216,157h16M204,158h8M216,158h16M204,159h8M216,159h16M200,160h36M200,161h36M200,162h36M200,163h36M204,164h28M204,165h28M204,166h28M204,167h28M200,168h20M200,169h20M200,170h20M200,171h20"/><path stroke="#d7e7ff" d="M320,100h24M320,101h24M320,102h24M320,103h24M308,104h36M308,105h36M308,106h36M308,107h36M300,108h40M300,109h40M300,110h40M300,111h40M296,112h12M312,112h28M296,113h12M312,113h28M296,114h12M312,114h28M296,115h12M312,115h28M300,116h4M308,116h4M316,116h20M300,117h4M308,117h4M316,117h20M300,118h4M308,118h4M316,118h20M300,119h4M308,119h4M316,119h20M296,120h12M312,120h16M296,121h12M312,121h16M296,122h12M312,122h16M296,123h12M312,123h16M300,124h20M300,125h20M300,126h20M300,127h20M296,128h16M296,129h16M296,130h16M296,131h16M300,132h8M300,133h8M300,134h8M300,135h8M296,136h16M296,137h16M296,138h16M296,139h16M300,140h20M300,141h20M300,142h20M300,143h20M296,144h12M312,144h16M296,145h12M312,145h16M296,146h12M312,146h16M296,147h12M312,147h16M300,148h4M308,148h4M316,148h20M300,149h4M308,149h4M316,149h20M300,150h4M308,150h4M316,150h20M300,151h4M308,151h4M316,151h20M296,152h12M312,152h12M328,152h12M296,153h12M312,153h12M328,153h12M296,154h12M312,154h12M328,154h12M296,155h12M312,155h12M328,155h12M300,156h20M324,156h4M332,156h8M300,157h20M324,157h4M332,157h8M300,158h20M324,158h4M332,158h8M300,159h20M324,159h4M332,159h8M308,160h16M328,160h16M308,161h16M328,161h16M308,162h16M328,162h16M308,163h16M328,163h16M320,164h24M320,165h24M320,166h24M320,167h24"/><path stroke="#b1d0ff" d="M236,104h8M236,105h8M236,106h8M236,107h8M232,108h20M232,109h20M232,110h20M232,111h20M236,112h4M244,112h16M236,113h4M244,113h16M236,114h4M244,114h16M236,115h4M244,115h16M232,116h32M232,117h32M232,118h32M232,119h32M236,120h12M252,120h8M236,121h12M252,121h8M236,122h12M252,122h8M236,123h12M252,123h8M232,124h12M248,124h4M256,124h8M232,125h12M248,125h4M256,125h8M232,126h12M248,126h4M256,126h8M232,127h12M248,127h4M256,127h8M236,128h12M252,128h8M236,129h12M252,129h8M236,130h12M252,130h8M236,131h12M252,131h8M232,132h32M232,133h32M232,134h32M232,135h32M236,136h16M256,136h4M236,137h16M256,137h4M236,138h16M256,138h4M236,139h16M256,139h4M232,140h32M232,141h32M232,142h32M232,143h32M236,144h8M248,144h12M236,145h8M248,145h12M236,146h8M248,146h12M236,147h8M248,147h12M232,148h8M244,148h4M252,148h12M232,149h8M244,149h4M252,149h12M232,150h8M244,150h4M252,150h12M232,151h8M244,151h4M252,151h12M236,152h8M248,152h12M236,153h8M248,153h12M236,154h8M248,154h12M236,155h8M248,155h12M232,156h20M232,157h20M232,158h20M232,159h20M236,160h8M236,161h8M236,162h8M236,163h8"/><path stroke="#c8ddfb" d="M292,112h4M292,113h4M292,114h4M292,115h4M288,116h12M288,117h12M288,118h12M288,119h12M260,120h8M284,120h12M260,121h8M284,121h12M260,122h8M284,122h12M260,123h8M284,123h12M264,124h8M280,124h20M264,125h8M280,125h20M264,126h8M280,126h20M264,127h8M280,127h20M260,128h24M288,128h8M260,129h24M288,129h8M260,130h24M288,130h8M260,131h24M288,131h8M264,132h4M272,132h8M284,132h4M292,132h8M264,133h4M272,133h8M284,133h4M292,133h8M264,134h4M272,134h8M284,134h4M292,134h8M264,135h4M272,135h8M284,135h4M292,135h8M260,136h24M288,136h8M260,137h24M288,137h8M260,138h24M288,138h8M260,139h24M288,139h8M264,140h8M280,140h20M264,141h8M280,141h20M264,142h8M280,142h20M264,143h8M280,143h20M260,144h8M284,144h12M260,145h8M284,145h12M260,146h8M284,146h12M260,147h8M284,147h12M288,148h12M288,149h12M288,150h12M288,151h12M292,152h4M292,153h4M292,154h4M292,155h4"/></svg>
